<?xml version="1.0" encoding="UTF-8" standalone="no"?><!-- Generator: Gravit.io --><svg xmlns="http://www.w3.org/2000/svg" xmlns:xlink="http://www.w3.org/1999/xlink" style="isolation:isolate" viewBox="0 0 128 101" width="128pt" height="101pt"><path d=" M 115.511 48.603 C 115.511 75.443 92.449 97.203 63.998 97.203 C 59.7 97.203 55.526 96.707 51.534 95.769 C 44.685 97.489 37.835 99.208 30.988 100.93 C 29.278 101.36 27.766 99.74 28.313 98.066 C 29.549 94.279 30.781 90.489 32.013 86.702 C 20.117 77.796 12.489 64.04 12.489 48.603 C 12.489 21.76 35.551 0 63.998 0 C 92.449 0 115.511 21.76 115.511 48.603 Z " fill="rgb(29,78,216)"/><mask id="_mask_DB1lt7kj9hFp3HFx5jhvk2rg92v7OOGH"><path d=" M 48.22 50.505 C 48.22 53.623 45.786 56.163 42.716 56.341 C 42.6 56.351 42.485 56.356 42.369 56.356 C 39.136 56.356 36.514 53.738 36.514 50.505 C 36.514 47.271 39.136 44.649 42.369 44.649 C 42.509 44.649 42.653 44.654 42.788 44.668 C 45.824 44.88 48.22 47.411 48.22 50.505 Z " fill="white" stroke="none"/></mask><path d=" M 48.22 50.505 C 48.22 53.623 45.786 56.163 42.716 56.341 C 42.6 56.351 42.485 56.356 42.369 56.356 C 39.136 56.356 36.514 53.738 36.514 50.505 C 36.514 47.271 39.136 44.649 42.369 44.649 C 42.509 44.649 42.653 44.654 42.788 44.668 C 45.824 44.88 48.22 47.411 48.22 50.505 Z " fill="rgb(219,234,254)"/><path d=" M 48.22 50.505 C 48.22 53.623 45.786 56.163 42.716 56.341 C 42.6 56.351 42.485 56.356 42.369 56.356 C 39.136 56.356 36.514 53.738 36.514 50.505 C 36.514 47.271 39.136 44.649 42.369 44.649 C 42.509 44.649 42.653 44.654 42.788 44.668 C 45.824 44.88 48.22 47.411 48.22 50.505 Z " fill="rgb(219,234,254)" mask="url(#_mask_DB1lt7kj9hFp3HFx5jhvk2rg92v7OOGH)" vector-effect="non-scaling-stroke" stroke-width="4" stroke="rgb(30,64,175)" stroke-linejoin="miter" stroke-linecap="square" stroke-miterlimit="3"/><mask id="_mask_URbSfAx3Lu0I4n4mgqjKu1AerVc03Z18"><path d=" M 69.853 50.505 C 69.853 53.618 67.419 56.163 64.349 56.341 C 64.233 56.351 64.113 56.356 63.998 56.356 C 60.764 56.356 58.147 53.733 58.147 50.505 C 58.147 47.271 60.764 44.649 63.998 44.649 C 64.127 44.649 64.257 44.654 64.387 44.664 C 67.438 44.861 69.853 47.401 69.853 50.505 Z " fill="white" stroke="none"/></mask><path d=" M 69.853 50.505 C 69.853 53.618 67.419 56.163 64.349 56.341 C 64.233 56.351 64.113 56.356 63.998 56.356 C 60.764 56.356 58.147 53.733 58.147 50.505 C 58.147 47.271 60.764 44.649 63.998 44.649 C 64.127 44.649 64.257 44.654 64.387 44.664 C 67.438 44.861 69.853 47.401 69.853 50.505 Z " fill="rgb(219,234,254)"/><path d=" M 69.853 50.505 C 69.853 53.618 67.419 56.163 64.349 56.341 C 64.233 56.351 64.113 56.356 63.998 56.356 C 60.764 56.356 58.147 53.733 58.147 50.505 C 58.147 47.271 60.764 44.649 63.998 44.649 C 64.127 44.649 64.257 44.654 64.387 44.664 C 67.438 44.861 69.853 47.401 69.853 50.505 Z " fill="rgb(219,234,254)" mask="url(#_mask_URbSfAx3Lu0I4n4mgqjKu1AerVc03Z18)" vector-effect="non-scaling-stroke" stroke-width="4" stroke="rgb(30,64,175)" stroke-linejoin="miter" stroke-linecap="square" stroke-miterlimit="3"/><mask id="_mask_I4Z7WmrvSfeKZKRlwNJlnBlElYffkMEF"><path d=" M 91.486 50.495 C 91.486 53.599 89.071 56.139 86.02 56.336 C 85.89 56.346 85.76 56.351 85.631 56.351 C 82.397 56.351 79.78 53.729 79.78 50.495 C 79.78 47.267 82.397 44.644 85.631 44.644 C 85.76 44.644 85.89 44.649 86.02 44.659 C 89.071 44.856 91.486 47.396 91.486 50.495 Z " fill="white" stroke="none"/></mask><path d=" M 91.486 50.495 C 91.486 53.599 89.071 56.139 86.02 56.336 C 85.89 56.346 85.76 56.351 85.631 56.351 C 82.397 56.351 79.78 53.729 79.78 50.495 C 79.78 47.267 82.397 44.644 85.631 44.644 C 85.76 44.644 85.89 44.649 86.02 44.659 C 89.071 44.856 91.486 47.396 91.486 50.495 Z " fill="rgb(219,234,254)"/><path d=" M 91.486 50.495 C 91.486 53.599 89.071 56.139 86.02 56.336 C 85.89 56.346 85.76 56.351 85.631 56.351 C 82.397 56.351 79.78 53.729 79.78 50.495 C 79.78 47.267 82.397 44.644 85.631 44.644 C 85.76 44.644 85.89 44.649 86.02 44.659 C 89.071 44.856 91.486 47.396 91.486 50.495 Z " fill="rgb(219,234,254)" mask="url(#_mask_I4Z7WmrvSfeKZKRlwNJlnBlElYffkMEF)" vector-effect="non-scaling-stroke" stroke-width="4" stroke="rgb(30,64,175)" stroke-linejoin="miter" stroke-linecap="square" stroke-miterlimit="3"/><path d=" M 30.446 73.05 C 37.222 73.993 38.061 74.798 39.2 81.85 C 39.327 82.528 39.856 83 40.489 83 C 41.144 83 41.685 82.517 41.777 81.838 C 42.778 74.787 43.732 73.821 50.542 73.05 C 51.232 72.969 51.75 72.406 51.75 71.75 C 51.75 71.083 51.244 70.542 50.554 70.45 L 41.777 61.65 C 41.662 60.972 41.144 60.5 40.489 60.5 C 39.844 60.5 39.304 60.972 39.2 61.662 C 38.211 68.713 37.256 69.679 30.446 70.45 C 29.756 70.531 29.25 71.083 29.25 71.75 C 29.25 72.406 29.745 72.958 30.446 73.05 Z  M 30.446 73.05 L 30.278 74.257 C 30.28 74.257 30.281 74.257 30.282 74.258 M 30.446 73.05 L 30.288 74.258 C 30.286 74.258 30.284 74.258 30.282 74.258 M 30.282 74.258 C 31.972 74.493 33.21 74.71 34.159 74.997 C 35.09 75.28 35.663 75.609 36.075 76.021 C 36.489 76.435 36.833 77.028 37.144 78.003 C 37.458 78.99 37.713 80.284 37.997 82.044 L 37.999 82.059 L 38.002 82.073 C 38.222 83.254 39.196 84.219 40.489 84.219 C 41.783 84.219 42.812 83.256 42.984 82.006 C 43.233 80.252 43.47 78.952 43.776 77.957 C 44.078 76.974 44.425 76.37 44.844 75.949 C 45.711 75.08 47.197 74.655 50.679 74.261 L 50.683 74.26 C 51.945 74.113 52.969 73.066 52.969 71.75 C 52.969 70.414 51.951 69.407 50.715 69.242 L 50.712 69.242 C 49.022 69.021 47.783 68.811 46.833 68.526 C 45.901 68.246 45.324 67.916 44.91 67.501 C 44.492 67.083 44.144 66.484 43.832 65.505 C 43.516 64.514 43.262 63.217 42.98 61.458 L 42.98 61.458 L 42.979 61.447 C 42.775 60.247 41.802 59.281 40.489 59.281 C 39.203 59.281 38.182 60.233 37.995 61.481 L 37.995 61.481 L 37.993 61.493 C 37.747 63.249 37.512 64.549 37.207 65.545 C 36.907 66.527 36.561 67.131 36.142 67.552 C 35.278 68.42 33.792 68.845 30.309 69.239 L 30.309 69.239 L 30.305 69.24 C 29.036 69.388 28.031 70.43 28.031 71.75 C 28.031 73.058 29.02 74.089 30.282 74.258 Z " fill="rgb(255,255,255)" vector-effect="non-scaling-stroke" stroke-width="2.438" stroke="rgb(29,78,216)" stroke-linejoin="miter" stroke-linecap="butt" stroke-miterlimit="4"/><mask id="_mask_askP9Nz0JlWZSGJY0NeolZ0DMqHkWTjL" x="-200%" y="-200%" width="400%" height="400%"><rect x="-200%" y="-200%" width="400%" height="400%" style="fill:white;"/><path d=" M 94.721 30.328 L 94.724 30.328 C 95.68 30.215 96.438 29.418 96.438 28.438 C 96.438 27.442 95.686 26.676 94.747 26.549 L 94.744 26.549 C 93.35 26.365 92.314 26.188 91.515 25.946 C 90.728 25.707 90.22 25.42 89.848 25.043 C 89.473 24.664 89.173 24.132 88.91 23.298 C 88.644 22.455 88.432 21.361 88.2 19.894 L 88.2 19.894 L 88.198 19.887 C 88.046 18.979 87.32 18.25 86.334 18.25 C 85.369 18.25 84.608 18.97 84.468 19.911 L 84.468 19.911 L 84.467 19.919 C 84.263 21.384 84.068 22.482 83.811 23.328 C 83.557 24.166 83.259 24.703 82.882 25.085 C 82.114 25.865 80.817 26.22 77.957 26.547 L 77.957 26.547 L 77.954 26.547 C 76.993 26.661 76.25 27.453 76.25 28.438 C 76.25 29.412 76.98 30.197 77.939 30.326 C 79.334 30.522 80.368 30.704 81.166 30.949 C 81.952 31.19 82.457 31.476 82.827 31.85 C 83.198 32.226 83.496 32.753 83.758 33.584 C 84.023 34.423 84.235 35.515 84.469 36.982 L 84.471 36.992 L 84.472 37.001 C 84.638 37.896 85.366 38.625 86.334 38.625 C 87.308 38.625 88.074 37.896 88.202 36.955 C 88.408 35.492 88.605 34.394 88.863 33.548 C 89.118 32.71 89.417 32.173 89.794 31.79 C 90.564 31.01 91.861 30.655 94.721 30.328 Z " fill="black" stroke="none"/></mask><path d=" M 94.721 30.328 L 94.724 30.328 C 95.68 30.215 96.438 29.418 96.438 28.438 C 96.438 27.442 95.686 26.676 94.747 26.549 L 94.744 26.549 C 93.35 26.365 92.314 26.188 91.515 25.946 C 90.728 25.707 90.22 25.42 89.848 25.043 C 89.473 24.664 89.173 24.132 88.91 23.298 C 88.644 22.455 88.432 21.361 88.2 19.894 L 88.2 19.894 L 88.198 19.887 C 88.046 18.979 87.32 18.25 86.334 18.25 C 85.369 18.25 84.608 18.97 84.468 19.911 L 84.468 19.911 L 84.467 19.919 C 84.263 21.384 84.068 22.482 83.811 23.328 C 83.557 24.166 83.259 24.703 82.882 25.085 C 82.114 25.865 80.817 26.22 77.957 26.547 L 77.957 26.547 L 77.954 26.547 C 76.993 26.661 76.25 27.453 76.25 28.438 C 76.25 29.412 76.98 30.197 77.939 30.326 C 79.334 30.522 80.368 30.704 81.166 30.949 C 81.952 31.19 82.457 31.476 82.827 31.85 C 83.198 32.226 83.496 32.753 83.758 33.584 C 84.023 34.423 84.235 35.515 84.469 36.982 L 84.471 36.992 L 84.472 37.001 C 84.638 37.896 85.366 38.625 86.334 38.625 C 87.308 38.625 88.074 37.896 88.202 36.955 C 88.408 35.492 88.605 34.394 88.863 33.548 C 89.118 32.71 89.417 32.173 89.794 31.79 C 90.564 31.01 91.861 30.655 94.721 30.328 Z " fill="rgb(255,255,255)"/><path d=" M 94.721 30.328 L 94.724 30.328 C 95.68 30.215 96.438 29.418 96.438 28.438 C 96.438 27.442 95.686 26.676 94.747 26.549 L 94.744 26.549 C 93.35 26.365 92.314 26.188 91.515 25.946 C 90.728 25.707 90.22 25.42 89.848 25.043 C 89.473 24.664 89.173 24.132 88.91 23.298 C 88.644 22.455 88.432 21.361 88.2 19.894 L 88.2 19.894 L 88.198 19.887 C 88.046 18.979 87.32 18.25 86.334 18.25 C 85.369 18.25 84.608 18.97 84.468 19.911 L 84.468 19.911 L 84.467 19.919 C 84.263 21.384 84.068 22.482 83.811 23.328 C 83.557 24.166 83.259 24.703 82.882 25.085 C 82.114 25.865 80.817 26.22 77.957 26.547 L 77.957 26.547 L 77.954 26.547 C 76.993 26.661 76.25 27.453 76.25 28.438 C 76.25 29.412 76.98 30.197 77.939 30.326 C 79.334 30.522 80.368 30.704 81.166 30.949 C 81.952 31.19 82.457 31.476 82.827 31.85 C 83.198 32.226 83.496 32.753 83.758 33.584 C 84.023 34.423 84.235 35.515 84.469 36.982 L 84.471 36.992 L 84.472 37.001 C 84.638 37.896 85.366 38.625 86.334 38.625 C 87.308 38.625 88.074 37.896 88.202 36.955 C 88.408 35.492 88.605 34.394 88.863 33.548 C 89.118 32.71 89.417 32.173 89.794 31.79 C 90.564 31.01 91.861 30.655 94.721 30.328 Z " fill="rgb(255,255,255)" mask="url(#_mask_askP9Nz0JlWZSGJY0NeolZ0DMqHkWTjL)" vector-effect="non-scaling-stroke" stroke-width="3.25" stroke="rgb(29,78,216)" stroke-linejoin="miter" stroke-linecap="butt" stroke-miterlimit="4"/><path d=" M 121.494 20 C 121.844 20 122.132 19.742 122.181 19.38 C 122.715 15.62 123.224 15.104 126.856 14.693 C 127.224 14.65 127.5 14.35 127.5 14 C 127.5 13.644 127.23 13.356 126.862 13.307 C 123.248 12.834 122.782 12.374 122.181 8.614 C 122.12 8.252 121.844 8 121.494 8 C 121.15 8 120.862 8.252 120.807 8.62 C 120.279 12.38 119.77 12.896 116.138 13.307 C 115.77 13.35 115.5 13.644 115.5 14 C 115.5 14.35 115.764 14.644 116.138 14.693 C 119.752 15.196 120.199 15.626 120.807 19.387 C 120.874 19.749 121.156 20 121.494 20 Z " fill="rgb(29,78,216)"/><path d=" M 114.372 9.5 C 114.568 9.5 114.73 9.355 114.758 9.151 C 115.058 7.036 115.345 6.746 117.388 6.515 C 117.595 6.491 117.75 6.322 117.75 6.125 C 117.75 5.925 117.598 5.763 117.391 5.735 C 115.359 5.469 115.096 5.211 114.758 3.095 C 114.724 2.891 114.568 2.75 114.372 2.75 C 114.178 2.75 114.016 2.891 113.985 3.099 C 113.688 5.214 113.402 5.504 111.359 5.735 C 111.152 5.759 111 5.925 111 6.125 C 111 6.322 111.148 6.487 111.359 6.515 C 113.391 6.798 113.643 7.039 113.985 9.155 C 114.023 9.359 114.182 9.5 114.372 9.5 Z " fill="rgb(29,78,216)"/><path d=" M 115.871 26 C 116.111 26 116.309 25.823 116.343 25.574 C 116.71 22.989 117.06 22.634 119.557 22.352 C 119.81 22.322 120 22.115 120 21.875 C 120 21.63 119.814 21.432 119.561 21.398 C 117.077 21.074 116.757 20.757 116.343 18.172 C 116.301 17.923 116.111 17.75 115.871 17.75 C 115.635 17.75 115.436 17.923 115.398 18.176 C 115.036 20.762 114.686 21.116 112.189 21.398 C 111.936 21.428 111.75 21.63 111.75 21.875 C 111.75 22.115 111.931 22.318 112.189 22.352 C 114.673 22.698 114.981 22.993 115.398 25.578 C 115.445 25.827 115.639 26 115.871 26 Z " fill="rgb(29,78,216)"/><path d=" M 5.619 16.25 C 5.947 16.25 6.217 16.008 6.263 15.669 C 6.764 12.143 7.241 11.66 10.646 11.275 C 10.991 11.235 11.25 10.953 11.25 10.625 C 11.25 10.291 10.997 10.021 10.652 9.975 C 7.264 9.532 6.827 9.101 6.263 5.575 C 6.206 5.236 5.947 5 5.619 5 C 5.297 5 5.027 5.236 4.975 5.581 C 4.48 9.107 4.003 9.59 0.598 9.975 C 0.253 10.015 0 10.291 0 10.625 C 0 10.953 0.247 11.229 0.598 11.275 C 3.986 11.747 4.406 12.149 4.975 15.675 C 5.038 16.014 5.303 16.25 5.619 16.25 Z " fill="rgb(29,78,216)"/><g opacity="0.4"><path d=" M 13.122 5.75 C 13.275 5.75 13.402 5.637 13.423 5.479 C 13.656 3.834 13.879 3.608 15.468 3.428 C 15.629 3.41 15.75 3.278 15.75 3.125 C 15.75 2.969 15.632 2.843 15.471 2.822 C 13.89 2.615 13.686 2.414 13.423 0.768 C 13.396 0.61 13.275 0.5 13.122 0.5 C 12.972 0.5 12.846 0.61 12.822 0.771 C 12.591 2.416 12.368 2.642 10.779 2.822 C 10.618 2.84 10.5 2.969 10.5 3.125 C 10.5 3.278 10.615 3.407 10.779 3.428 C 12.36 3.648 12.556 3.836 12.822 5.482 C 12.851 5.64 12.975 5.75 13.122 5.75 Z " fill="rgb(29,78,216)"/></g><g opacity="0.4"><path d=" M 16.872 12.5 C 17.025 12.5 17.152 12.387 17.173 12.229 C 17.406 10.584 17.629 10.358 19.218 10.178 C 19.379 10.16 19.5 10.028 19.5 9.875 C 19.5 9.719 19.382 9.593 19.221 9.572 C 17.64 9.365 17.436 9.164 17.173 7.518 C 17.146 7.36 17.025 7.25 16.872 7.25 C 16.722 7.25 16.596 7.36 16.572 7.521 C 16.341 9.166 16.118 9.392 14.529 9.572 C 14.368 9.59 14.25 9.719 14.25 9.875 C 14.25 10.028 14.365 10.157 14.529 10.178 C 16.11 10.398 16.306 10.586 16.572 12.232 C 16.601 12.39 16.725 12.5 16.872 12.5 Z " fill="rgb(29,78,216)"/></g></svg>